:SAMPLES-PER-SECOND 30
:FULLY-SPECIFIED
:DEGREES
586
root  70.6266 38.4389 0.976529 158.095 -86.7651 -160.107
RightUpLeg  -7.11316 -6.56906 2.15114
RightLeg  19.187 6.44805 2.26913
RightFoot  -12.3504 -0.0950442 -1.30378
RightToes  -9.31324e-010 0 -3.6325e-017
Spine  8.94173 0.766207 16.1787
Spine1  0.584624 3.45805 -6.56533
HEad  8.69506 -34.3919 -12.7187
LeftShoulder1  -0.4456 4.63143 -33.3245
LeftArm  14.4689 8.67734 -42.7353
LeftForeArm  17.7087 -23.7241 -4.14425
LeftHand  -0.0268543 6.87445 0.655615
RightShoulder  -0.675173 -5.35656 29.7133
RightArm  24.8254 12.6901 48.5499
RightForeArm  7.98421 15.3218 6.99289
RightHand  -0.208516 5.60838 -2.52021
LeftUpLeg  -19.0982 -1.78891 2.19675
LeftLeg  52.8209 -1.99231 -2.3633
LeftFoot  -1.25537 0.206784 -2.37975
LeftToes  8.61288e-010 -5.99147e-011 2.1039e-011
587
root  69.7442 38.531 0.903115 170.245 -86.6811 -172.157
RightUpLeg  -5.11861 -7.35081 1.21334
RightLeg  18.0497 7.44341 2.47729
RightFoot  -13.3849 -0.11209 -1.21195
RightToes  -9.31324e-010 0 -3.6325e-017
Spine  8.81304 1.00875 16.0586
Spine1  0.770731 3.67325 -7.3388
HEad  8.43672 -34.8777 -12.3292
LeftShoulder1  -0.544165 4.86219 -33.8037
LeftArm  14.3654 9.05256 -41.8019
LeftForeArm  18.091 -23.3847 -4.09607
LeftHand  -0.0300455 6.2651 0.232545
RightShoulder  -0.620785 -5.22868 29.2348
RightArm  26.7829 15.6977 49.4319
RightForeArm  4.4016 18.1658 5.92507
RightHand  -0.224622 5.6719 -2.68126
LeftUpLeg  -20.793 -1.81946 1.64181
LeftLeg  46.072 -1.76454 -1.582
LeftFoot  -3.68041 0.362812 -5.01113
LeftToes  8.61288e-010 -5.99147e-011 2.1039e-011
588
root  68.8421 38.6316 0.797699 177.146 -86.7105 -178.949
RightUpLeg  -2.84761 -7.69453 0.595654
RightLeg  16.3839 7.93107 2.44262
RightFoot  -14.0993 -0.123353 -1.15406
RightToes  -9.31324e-010 0 -3.6325e-017
Spine  9.59473 1.55459 16.6409
Spine1  -1.08879 4.40757 -9.57738
HEad  9.00822 -35.8608 -12.447
LeftShoulder1  -0.0361873 3.59462 -32.173
LeftArm  13.0039 11.0438 -42.3587
LeftForeArm  18.9588 -22.0375 -4.28802
LeftHand  -0.0176553 7.24187 1.25838
RightShoulder  -0.903052 -5.89693 31.018
RightArm  28.3425 17.4436 47.7507
RightForeArm  2.34319 21.1968 4.98956
RightHand  -0.223441 6.04382 -2.56189
LeftUpLeg  -21.5303 -1.79703 1.27881
LeftLeg  37.3279 -1.22923 -0.637352
LeftFoot  -3.86296 0.31667 -4.50163
LeftToes  8.61288e-010 -5.99147e-011 2.1039e-011
589
root  67.9346 38.7123 0.69132 -175.434 -86.7343 174.018
RightUpLeg  -0.880392 -7.91107 -0.00959205
RightLeg  14.7169 8.25593 2.36466
RightFoot  -14.7026 -0.134682 -1.21022
RightToes  -9.31324e-010 0 -3.6325e-017
Spine  9.04355 1.90461 16.5292
Spine1  -0.704877 4.84364 -11.2466
HEad  8.52923 -36.5395 -11.2463
LeftShoulder1  0.250636 2.82655 -30.6206
LeftArm  9.27635 11.9534 -43.1608
LeftForeArm  21.5803 -19.8406 -4.94835
LeftHand  -0.0341294 6.56879 0.192896
RightShoulder  -1.19285 -6.53963 32.7945
RightArm  28.8096 20.4246 46.8112
RightForeArm  0.864885 23.036 4.9496
RightHand  -0.420078 6.91698 -4.32236
LeftUpLeg  -21.8978 -1.41041 0.802085
LeftLeg  27.2086 -1.18188 -0.330149
LeftFoot  -3.18377 0.336615 -4.41733
LeftToes  8.61288e-010 -5.99147e-011 2.1039e-011
590
root  66.9804 38.779 0.587323 -167.665 -86.574 166.572
RightUpLeg  1.36024 -8.00839 -0.652814
RightLeg  12.7464 8.64794 2.18579
RightFoot  -15.321 -0.136812 -0.948528
RightToes  -9.31324e-010 0 -3.6325e-017
Spine  8.404 2.08721 15.0014
Spine1  0.102637 4.73912 -10.6033
HEad  7.75234 -35.8816 -10.8722
LeftShoulder1  0.0928964 3.24785 -31.2677
LeftArm  8.14999 13.0183 -42.3034
LeftForeArm  22.2176 -19.1911 -5.2345
LeftHand  -0.0387137 6.78957 -0.138271
RightShoulder  -0.957871 -6.02099 31.328
RightArm  26.9821 21.5886 47.8108
RightForeArm  3.00085 24.6395 5.1089
RightHand  -0.381056 6.53714 -4.03795
LeftUpLeg  -21.4235 -0.100311 0.0454532
LeftLeg  16.4083 -1.41018 -0.131508
LeftFoot  -2.05506 0.466044 -5.60135
LeftToes  8.61288e-010 -5.99147e-011 2.1039e-011
591
root  65.9795 38.7933 0.4869 -165.06 -86.8241 164.104
RightUpLeg  3.9435 -8.05696 -0.994501
RightLeg  10.7252 8.66463 2.02572
RightFoot  -15.8496 -0.136868 -0.765701
RightToes  -9.31324e-010 0 -3.6325e-017
Spine  8.12204 2.02542 13.3946
Spine1  0.778511 4.36464 -9.25326
HEad  6.64935 -35.6257 -11.184
LeftShoulder1  -0.213152 4.05338 -32.9441
LeftArm  8.26897 13.3258 -40.4954
LeftForeArm  22.4362 -18.0948 -5.86456
LeftHand  -0.0431131 7.06412 -0.266276
RightShoulder  -0.660599 -5.36262 28.9329
RightArm  25.0034 21.6325 49.3027
RightForeArm  4.87155 25.55 5.22541
RightHand  -0.294631 6.26805 -3.26729
LeftUpLeg  -20.544 1.22528 -0.540333
LeftLeg  6.44268 -1.40973 -0.206018
LeftFoot  -1.60114 0.466526 -5.35902
LeftToes  8.61288e-010 -5.99147e-011 2.1039e-011
592
root  64.936 38.7219 0.404487 -162.583 -86.5236 161.902
RightUpLeg  5.77496 -7.80856 -1.24376
RightLeg  9.90448 8.87145 1.62449
RightFoot  -16.957 -0.130734 -0.315116
RightToes  -9.31324e-010 0 -3.6325e-017
Spine  6.54416 2.45291 12.4713
Spine1  3.0183 4.89762 -9.60516
HEad  5.9228 -35.9651 -9.71854
LeftShoulder1  -0.109757 3.78348 -32.8086
LeftArm  4.11069 13.3526 -40.2163
LeftForeArm  26.5689 -15.5477 -6.85559
LeftHand  -0.052146 6.80987 -1.14256
RightShoulder  -0.728439 -5.51234 29.548
RightArm  25.2485 22.6081 48.9825
RightForeArm  4.06995 25.7884 5.3216
RightHand  -0.348876 6.41351 -3.77761
LeftUpLeg  -20.2628 1.1116 -0.638127
LeftLeg  -0.210012 1.29011 -0.481095
LeftFoot  -1.3394 0.473139 -5.3159
LeftToes  8.61288e-010 -5.99147e-011 2.1039e-011
593
root  63.763 38.5139 0.37857 -157.379 -86.9368 156.432
RightUpLeg  8.01958 -8.3351 -1.99285
RightLeg  10.2384 9.19122 1.89457
RightFoot  -18.7655 -0.143274 -0.26037
RightToes  -9.31324e-010 0 -3.6325e-017
Spine  6.86802 2.25714 12.3133
Spine1  2.88588 5.01548 -10.9149
HEad  5.69314 -36.2103 -8.38791
LeftShoulder1  0.00142695 3.50092 -31.7205
LeftArm  1.56941 14.5936 -40.1775
LeftForeArm  29.8847 -13.6221 -7.50684
LeftHand  -0.0462466 6.60721 -1.2374
RightShoulder  -0.90606 -5.9328 30.7219
RightArm  25.9908 22.0864 48.5204
RightForeArm  3.55884 25.5761 5.29992
RightHand  -0.378944 5.90687 -4.2387
LeftUpLeg  -20.5594 0.881054 -1.17039
LeftLeg  -0.908078 3.65209 -0.678126
LeftFoot  -1.2068 0.393427 -4.35289
LeftToes  8.61288e-010 -5.99147e-011 2.1039e-011
594
root  62.4837 38.2257 0.389588 -153.305 -87.1777 151.971
RightUpLeg  10.1423 -8.63281 -2.62898
RightLeg  11.5037 9.64292 1.96588
RightFoot  -20.8827 -0.140498 0.0169733
RightToes  -9.31324e-010 0 -3.6325e-017
Spine  6.72655 2.20675 11.5988
Spine1  3.42739 4.97349 -10.8106
HEad  5.39879 -36.2613 -7.96768
LeftShoulder1  -0.0948044 3.7506 -32.2428
LeftArm  0.232665 15.0015 -39.1298
LeftForeArm  31.4041 -12.152 -7.97703
LeftHand  -0.0632257 8.25317 -0.778675
RightShoulder  -0.875084 -5.85184 30.6321
RightArm  26.6418 20.6156 48.6395
RightForeArm  3.58599 24.5784 5.05876
RightHand  -0.286674 7.22416 -2.97946
LeftUpLeg  -21.3758 0.743672 -1.85469
LeftLeg  3.53735 5.74978 -0.321511
LeftFoot  -1.28196 0.289016 -3.14143
LeftToes  8.61288e-010 -5.99147e-011 2.1039e-011
595
root  61.1429 37.9541 0.407902 -149.426 -86.6373 147.691
RightUpLeg  12.192 -8.3742 -3.55196
RightLeg  12.7845 9.96724 1.85597
RightFoot  -22.4644 -0.11357 0.391731
RightToes  -9.31324e-010 0 -3.6325e-017
Spine  6.98031 2.50698 10.4327
Spine1  3.39951 5.29324 -10.7615
HEad  5.53587 -36.371 -8.22194
LeftShoulder1  -0.219494 4.06622 -32.9381
LeftArm  -1.09359 15.6524 -37.7195
LeftForeArm  33.616 -10.8825 -8.19649
LeftHand  -0.0767692 7.18811 -2.2431
RightShoulder  -0.794599 -5.66981 30.0226
RightArm  27.9831 18.0876 49.1817
RightForeArm  2.32406 22.6767 4.87539
RightHand  -0.318694 7.16747 -3.29977
LeftUpLeg  -21.7919 1.5379 -3.12389
LeftLeg  8.95341 5.70784 0.438124
LeftFoot  -0.239178 0.060835 -0.843181
LeftToes  8.61288e-010 -5.99147e-011 2.1039e-011
